<mxfile host="app.diagrams.net" agent="Mozilla/5.0 (Windows NT 10.0; Win64; x64) AppleWebKit/537.36 (KHTML, like Gecko) Chrome/134.0.0.0 Safari/537.36" version="26.1.1">
  <diagram name="PÃ¡gina-1" id="GVQMnsupFVLumH8s-yze">
    <mxGraphModel grid="1" page="1" gridSize="10" guides="1" tooltips="1" connect="1" arrows="1" fold="1" pageScale="1" pageWidth="827" pageHeight="1169" math="0" shadow="0">
      <root>
        <mxCell id="0" />
        <mxCell id="1" parent="0" />
        <mxCell id="cHRLHEvhlaLrGlQswjQY-3" style="edgeStyle=orthogonalEdgeStyle;rounded=0;orthogonalLoop=1;jettySize=auto;html=1;exitX=0.5;exitY=1;exitDx=0;exitDy=0;entryX=0.5;entryY=0;entryDx=0;entryDy=0;" edge="1" parent="1" source="cHRLHEvhlaLrGlQswjQY-1" target="cHRLHEvhlaLrGlQswjQY-2">
          <mxGeometry relative="1" as="geometry" />
        </mxCell>
        <mxCell id="cHRLHEvhlaLrGlQswjQY-1" value="inicio" style="ellipse;whiteSpace=wrap;html=1;fillColor=#fff2cc;strokeColor=#d6b656;" vertex="1" parent="1">
          <mxGeometry x="354" y="40" width="120" height="80" as="geometry" />
        </mxCell>
        <mxCell id="cHRLHEvhlaLrGlQswjQY-5" value="" style="edgeStyle=orthogonalEdgeStyle;rounded=0;orthogonalLoop=1;jettySize=auto;html=1;" edge="1" parent="1" source="cHRLHEvhlaLrGlQswjQY-2" target="cHRLHEvhlaLrGlQswjQY-4">
          <mxGeometry relative="1" as="geometry" />
        </mxCell>
        <mxCell id="cHRLHEvhlaLrGlQswjQY-2" value="num1, num2" style="shape=parallelogram;perimeter=parallelogramPerimeter;whiteSpace=wrap;html=1;fixedSize=1;fillColor=#fff2cc;strokeColor=#d6b656;" vertex="1" parent="1">
          <mxGeometry x="354" y="200" width="120" height="60" as="geometry" />
        </mxCell>
        <mxCell id="cHRLHEvhlaLrGlQswjQY-7" value="" style="edgeStyle=orthogonalEdgeStyle;rounded=0;orthogonalLoop=1;jettySize=auto;html=1;" edge="1" parent="1" source="cHRLHEvhlaLrGlQswjQY-4" target="cHRLHEvhlaLrGlQswjQY-6">
          <mxGeometry relative="1" as="geometry" />
        </mxCell>
        <mxCell id="cHRLHEvhlaLrGlQswjQY-4" value="media = (num1+num2)/2" style="whiteSpace=wrap;html=1;fillColor=#fff2cc;strokeColor=#d6b656;" vertex="1" parent="1">
          <mxGeometry x="341" y="340" width="146" height="60" as="geometry" />
        </mxCell>
        <mxCell id="cHRLHEvhlaLrGlQswjQY-9" value="" style="edgeStyle=orthogonalEdgeStyle;rounded=0;orthogonalLoop=1;jettySize=auto;html=1;" edge="1" parent="1" source="cHRLHEvhlaLrGlQswjQY-6" target="cHRLHEvhlaLrGlQswjQY-8">
          <mxGeometry relative="1" as="geometry" />
        </mxCell>
        <mxCell id="cHRLHEvhlaLrGlQswjQY-6" value="media" style="shape=document;whiteSpace=wrap;html=1;boundedLbl=1;fillColor=#fff2cc;strokeColor=#d6b656;" vertex="1" parent="1">
          <mxGeometry x="354" y="470" width="120" height="80" as="geometry" />
        </mxCell>
        <mxCell id="cHRLHEvhlaLrGlQswjQY-8" value="fim" style="ellipse;whiteSpace=wrap;html=1;fillColor=#fff2cc;strokeColor=#d6b656;" vertex="1" parent="1">
          <mxGeometry x="374" y="630" width="80" height="80" as="geometry" />
        </mxCell>
      </root>
    </mxGraphModel>
  </diagram>
</mxfile>
